# xmcd
#
# Track frame offsets:
#	150
#	17690
#	59440
#	81927
#	106787
#
# Disc length: 2013
#
# Revision: 3
# Processed by: cddbd v1.5.2PL0 Copyright (c) Steve Scherf et al.
# Submitted via: EasyCDDAExtractor 6.5.0.1
# Normalized: r2:DSETVAR1
#
DISCID=3407db05
DTITLE=Various Artist - My All/Breakdown US single
DYEAR=1998
DGENRE=Blues
TTITLE0=Mariah Carey - My All(Album Version)
TTITLE1=Mariah Carey - My All(Classic Club Mix)
TTITLE2=Mariah Carey Featuring Bone Thugs-N-Harmony - Breakdown(The Mo' Thugs Remix)
TTITLE3=Mariah Carey - The Roof(Mobb Deep Mix)
TTITLE4=Mariah Carey - Fly Away(Butterfly Reprise)(Fly Away Club Mix)
EXTD=
EXTT0=
EXTT1=
EXTT2=with Bone Thugs 'n' Harmony\n
EXTT3=with Mobb Deep\n
EXTT4=
PLAYORDER=
